# xmcd
#
# Track frame offsets:
#	150
#	18315
#	35363
#	54488
#	73231
#	92439
#	111797
#	130000
#	148563
#	164958
#	183498
#
# Disc length: 2633 seconds
#
# Revision: 0
# Processed by: cddbd v1.5.2PL0 Copyright (c) Steve Scherf et al.
# Submitted via: EasyCDDAExtractor 12.0.7.1
#
DISCID=980a470b
DTITLE=ไผ่ พงศธร - มีเธอจึงมีฝัน
DYEAR=2010
DGENRE=Country
TTITLE0=ลูก ตจว.
TTITLE1=มีเธอจึงมีฝัน
TTITLE2=เพราะรักถึงลาก่อน
TTITLE3=ยามคิดฮอด....กอดด้วยอ้อมใจ
TTITLE4=ขอเป็นผู้ช่วยเจ็บ
TTITLE5=ทบ.2 ลูกอีสาน
TTITLE6=สาวเย็บผ้า
TTITLE7=โยนใจถามทาง
TTITLE8=อยากเห็นหน้าทุกวัน
TTITLE9=เนียง เนอว อินา (น้องอยู่ที่ไหน)
TTITLE10=ฝันมีไฟใจเกินร้อย
EXTD=
EXTT0=
EXTT1=
EXTT2=
EXTT3=
EXTT4=
EXTT5=
EXTT6=
EXTT7=
EXTT8=
EXTT9=
EXTT10=
PLAYORDER=
